<svg xmlns="http://www.w3.org/2000/svg" viewBox="0 0 4230.01 1000.78"><defs><style>.cls-1,.cls-2{fill:#fff;}.cls-2{fill-rule:evenodd;}</style></defs><g id="Outline_wit" data-name="Outline wit"><path class="cls-1" d="M472.36,494,670.2,435.25l65,240.65-98.5,91.72-210.4-55.16ZM446.3,693.38,625.83,752.2l84.32-71-51.24-226L482.7,504.25Z" transform="translate(-40.19 -40.02)"/><path class="cls-1" d="M350.63,669l156-327.17,242.24,85.91,24.22,321L523.52,842.58ZM517.32,812.34l242.25-73.47L726.81,444.32,510.32,356.63,370.17,658.45Z" transform="translate(-40.19 -40.02)"/><path class="cls-1" d="M526.07,265.19,860.44,434.68l-66.87,409L416.31,883.23,264.23,559.14ZM284.9,552.83l148.3,293,345.21-18,54.05-390.18L535.68,297.74Z" transform="translate(-40.19 -40.02)"/><path class="cls-1" d="M160.06,649.23,422.31,181.88,887,313l76.68,531.92L435,969.81ZM439.15,919l498.51-99.29L866.59,327.3,459.17,214.11,185.89,651Z" transform="translate(-40.19 -40.02)"/><path class="cls-2" d="M343.6,1040l666.27-73.28L1040.19,318,483,40,40.19,574.53Zm-6.44-50.44L978.82,938l-.23-600L479.31,81.13,85.9,565.63Z" transform="translate(-40.19 -40.02)"/></g><g id="Tekst_wit" data-name="Tekst wit"><path class="cls-1" d="M1199.47,403.08v285.5h42.2v39.6H1101v-39.6h42.2V403.08H1101v-39.6h140.67v39.6Z" transform="translate(-40.19 -40.02)"/><path class="cls-1" d="M1582.4,689.1v39.08h-91.17V682.33c-17.72,28.66-52.1,53.14-95.35,53.14-72.41,0-124.51-59.39-124.51-145.88,0-83.88,59.39-141.19,130.25-141.19,40.11,0,72.93,21.36,89.61,52.1V390.57h-38.56V351.5h91.7l-.52,337.6Zm-88.57-99c0-56.27-35.95-97.43-82.84-97.43-48.45,0-83.36,39.59-83.36,96.9,0,61,30.74,101.6,80.24,101.6S1493.83,652.63,1493.83,590.12Z" transform="translate(-40.19 -40.02)"/><path class="cls-1" d="M1865.82,601.06l-209.44.52c4.69,55.74,38,90.13,89.61,90.13,32.3,0,62-15.11,80.24-38.55l33.34,24.48c-25,39.08-66.69,58.35-116.18,58.35-86,0-142.23-62-142.23-146.92,0-78.67,56.78-140.67,139.1-140.67,80.24,0,127.13,59.4,127.13,131.3A142.46,142.46,0,0,1,1865.82,601.06Zm-54.7-38c0-42.72-28.14-72.94-72.94-72.94-40.12,0-72.42,25.53-80.24,72.94Z" transform="translate(-40.19 -40.02)"/><path class="cls-1" d="M2210.72,689.1v39.08h-126.6V689.1h35.43V555.73c0-36-26.05-59.92-63.57-59.92-39.07,0-69.81,29.18-69.81,67.21V689.1h35.43v39.08H1895V689.1h38V495.29h-38V456.22h90.13v42.72c16.15-29.18,47.41-49,87-49,59.91,0,100.55,39.07,100.55,99V689.1Z" transform="translate(-40.19 -40.02)"/><path class="cls-1" d="M2257.61,645.86V495.29h-39.08V456.22h39.08V398.39h53.14v57.83h58.87v39.07h-58.87V646.38c0,24.49,13,41.16,34.91,41.16a166.51,166.51,0,0,0,28.13-2.6v40.63a182.14,182.14,0,0,1-39.08,4.69C2284.7,730.26,2257.61,696.4,2257.61,645.86Z" transform="translate(-40.19 -40.02)"/><path class="cls-1" d="M2546.23,689.1v39.08H2417V689.1h38V495.29h-38V456.22h91.17V689.1Zm-98.46-309.47c0-18.75,14.06-33.34,33.34-33.34,19.8,0,34.39,14.59,34.39,33.34,0,19.28-14.59,33.35-34.39,33.35C2461.83,413,2447.77,398.91,2447.77,379.63Z" transform="translate(-40.19 -40.02)"/><path class="cls-1" d="M2615.53,645.86V495.29h-39.08V456.22h39.08V398.39h53.14v57.83h58.87v39.07h-58.87V646.38c0,24.49,13,41.16,34.91,41.16a166.51,166.51,0,0,0,28.13-2.6v40.63a182.14,182.14,0,0,1-39.08,4.69C2642.62,730.26,2615.53,696.4,2615.53,645.86Z" transform="translate(-40.19 -40.02)"/><path class="cls-1" d="M3086,495.29h-35.42l-95.87,248c-19.27,50-61,84.92-109.41,84.92-13.54,0-25-.52-33.86-2.6V781.84c7.81,2.09,18.23,3.13,29.17,3.13,27.1,0,50-17.72,62.52-47.93l1.57-3.65-95.87-238.1h-35.42V456.22h129.72v39.07h-38.55l68.77,186,66.69-186h-38.56V456.22H3086Z" transform="translate(-40.19 -40.02)"/><path class="cls-1" d="M3355.86,674.52c-23.45,38.55-66.69,61.47-115.67,61.47-81.79,0-136.5-62.52-136.5-147.44,0-77.63,58.35-140.15,128.69-140.15,31.26,0,57.83,14.07,74.5,36V456.22h43.77V549h-39.6c-7.82-34.91-32.82-57.31-67.21-57.31-48.45,0-83.88,38.55-83.88,96.9,0,57.83,34.91,102.64,83.36,102.64,31.26,0,60.44-16.67,78.15-42.2Z" transform="translate(-40.19 -40.02)"/><path class="cls-1" d="M3594,451.53l-3.65,56.79a147.66,147.66,0,0,0-34.38-4.17c-41.68,0-68.77,32.3-68.77,77.11V689.1h44.28v39.08H3396V689.1h38V495.29h-38V456.22h90.13v57.31c13-33.87,43.25-64.61,79.2-64.61A167.63,167.63,0,0,1,3594,451.53Z" transform="translate(-40.19 -40.02)"/><path class="cls-1" d="M3885.19,689.1v39.08h-84.92l-4.69-28.66c-17.2,22.41-47.94,34.91-82.84,34.91-61,0-102.12-36.47-102.12-89.09,0-54.7,47.93-88.57,110.45-88.57,28.14,0,55.23,9.38,72.94,22.93V550.52c0-35.95-27.09-57.83-65.12-57.83-30.22,0-59.39,11.46-81.8,25.53l-20.32-37c32.83-18.76,69.82-31.78,113.58-31.78,66.69,0,106.81,40.11,106.81,95.86V689.1Zm-89.61-45.84c0-29.18-28.14-49.5-65.13-49.5-37.51,0-64.08,21.36-64.08,50s25.53,51.05,63.56,51.05C3767.44,694.83,3795.58,673,3795.58,643.26Z" transform="translate(-40.19 -40.02)"/><path class="cls-1" d="M4016,429.65v26.57h57.31v39.07H4016V689.1h45.33v39.08h-136.5V689.1h38V495.29h-38V456.22h38V428.61c0-47.41,34.9-79.72,87.53-79.72a242.67,242.67,0,0,1,33.34,2.09v39.59a211.68,211.68,0,0,0-26.57-2.08C4031.59,388.49,4016,404.64,4016,429.65Z" transform="translate(-40.19 -40.02)"/><path class="cls-1" d="M4154,645.86V495.29H4115V456.22H4154V398.39h53.15v57.83H4266v39.07h-58.87V646.38c0,24.49,13,41.16,34.9,41.16a166.54,166.54,0,0,0,28.14-2.6v40.63a182.14,182.14,0,0,1-39.08,4.69C4181.12,730.26,4154,696.4,4154,645.86Z" transform="translate(-40.19 -40.02)"/><text x="-40.19" y="-40.02"/></g></svg>